<svg width="23" height="23" viewBox="0 0 23 23" fill="none" xmlns="http://www.w3.org/2000/svg">
<path fill-rule="evenodd" clip-rule="evenodd" d="M3.83333 0C3.28105 0 2.83333 0.447715 2.83333 1C2.83333 1.55228 3.28105 2 3.83333 2H9.33327L11.4593 3.96967L11.7469 4.23611H12.1389H20.7222V18.8889C20.7222 19.4412 21.1699 19.8889 21.7222 19.8889C22.2745 19.8889 22.7222 19.4412 22.7222 18.8889V4.23611C22.7222 3.13154 21.8268 2.23611 20.7222 2.23611H12.5309L10.6925 0.532877C10.3228 0.190317 9.83731 0 9.33327 0H3.83333ZM8.81919 8.49475L9.403 9.06944H10.2222H15.8889V20.7222H2V6.83333H7.1314L8.81919 8.49475ZM8.24253 5.12068L10.2222 7.06944H16.8889C17.4412 7.06944 17.8889 7.51716 17.8889 8.06944V21.7222C17.8889 22.2745 17.4412 22.7222 16.8889 22.7222H0.999998C0.447713 22.7222 0 22.2745 0 21.7222V5.83333C0 5.28105 0.447715 4.83333 1 4.83333H7.54101C7.8035 4.83333 8.05546 4.93654 8.24253 5.12068Z" fill="#222222"/>
</svg>
