<svg width="563" height="155" viewBox="0 0 563 155" fill="none" xmlns="http://www.w3.org/2000/svg">
<path d="M50.7011 3.73575C33.1089 2.33876 15.5543 5.28595 -2 2.00012V151.02L560 153C558.857 151.288 558.137 149.671 556.088 148.589C553.249 147.088 552.697 141.901 549.206 140.634C547.603 140.052 546.493 138.903 545.15 137.886C539.46 133.577 534.192 128.955 528.162 125.085C518.354 118.791 508.811 112.502 498.207 107.44C491.667 104.317 484.524 100.671 477.272 99.6294C469.058 98.4499 460.742 97.6753 452.569 96.2305C435.841 93.2731 419.232 88.7126 402.223 87.7693C395.94 87.4208 389.437 87.7399 383.207 86.8653C368.77 84.8385 355.508 77.748 341.227 74.8967C332.418 73.1378 325.274 69.6948 316.923 66.0739C305.176 60.9802 294.452 58.0762 284.035 50.5255C279.89 47.5215 276.052 43.3282 271.394 41.4134C259.147 36.3792 247.544 29.177 234.449 27.0945L233.72 26.9786C222.957 25.2679 212.073 23.5378 201.633 20.3689C199.649 19.7668 197.351 18.2717 195.222 18.2717C186.303 18.2717 177.843 14.9897 169.288 12.7755C164.13 11.4407 157.89 11.7148 152.626 11.2568C129.063 9.20667 104.856 6.16156 81.1627 7.35165C70.566 7.88391 61.1907 4.56874 50.7011 3.73575Z" fill="#8F939C" stroke="black" stroke-width="3" stroke-linecap="round"/>
<path d="M59 25C58.5 25 20.5 24 19.5 24V29.5L29 40.5L42 54L63 55.5L84 47L89.5 29.5C79.5 28 59.4 25 59 25Z" fill="#636A79"/>
<path d="M42.5 105.5C42.9699 105.671 55.1796 110.327 56.1194 110.668L60 105.5L64.5 99.5L61.5 86.5L45 73.5L31.0329 74.8683L24 83L22.5 91.5C31.3843 96.3289 42.1241 105.363 42.5 105.5Z" fill="#636A79"/>
<path d="M149.143 66.6541C149.577 66.903 174.633 76.0023 175.5 76.5L174.5 86L167.5 91L146.876 93.4283L126.299 89.2022L118.337 77.6454L120.016 67.0262L125.545 60.398C134.965 64.0736 148.796 66.4551 149.143 66.6541Z" fill="#636A79"/>
<path d="M254.143 48.4505C254.577 48.6994 279.133 63.5023 280 64L282.5 73.5L274.5 75.2247L251.876 75.2247L233.5 68.5L223.337 59.4418L225.016 48.8226L231.5 44.5C240.92 48.1756 253.796 48.2515 254.143 48.4505Z" fill="#636A79"/>
<path d="M373.519 106.5C373.953 106.749 401.633 116.002 402.5 116.5L411 126L405 132.5L393.876 134.255L388 138L377.5 138L352.876 127.53L342.714 118.472L344.393 107.853L350.876 102.55C360.297 106.225 373.172 106.301 373.519 106.5Z" fill="#636A79"/>
<path d="M250 108C262.624 111.504 257.652 111.002 258.519 111.5L267 117L271 123L275 130.5L272 135L261.5 135L241 124.724L231 115.224L229.393 106.577L233.5 106.577C242.92 110.253 232.981 103.276 250 108Z" fill="#636A79"/>
<path d="M17.7548 22.4782C29.0091 26.1614 40.714 21.3921 52.2154 23.2185C55.3728 23.7199 58.4595 24.5754 61.603 25.1497C65.3824 25.8401 69.1928 26.1654 73.0291 26.2976C78.2375 26.4772 83.2676 27.2788 88.3926 28.1859C88.8184 28.2613 89.0072 28.1991 89.0149 28.6365C89.0376 29.9319 89.1073 31.2053 89.1973 32.4988C89.5338 37.3367 87.8815 42.2809 84.8522 46.0814C82.0697 49.5722 76.4515 50.2544 72.5141 51.7462C67.3287 53.7108 62.5301 55.9871 56.9575 56.6384C52.5833 57.1497 49.0642 56.9033 45.1345 54.836C42.8824 53.6513 40.7871 52.1831 38.6543 50.802C37.066 49.7735 35.3877 48.8181 33.9122 47.6263C32.1518 46.2044 30.6677 44.3186 29.4384 42.4336C28.134 40.4336 26.6943 38.2946 25.576 36.1895C24.8642 34.8497 23.6318 34.3491 22.4754 33.4859C20.9121 32.3189 19.3813 30.2535 18.5702 28.5078C17.9312 27.1326 17.9479 25.5069 17.9479 24.0232C17.9479 23.4402 17.9479 22.8573 17.9479 22.2744C17.9479 21.4279 18.3289 21.401 18.9135 20.9333" stroke="black" stroke-width="3" stroke-linecap="round"/>
<path d="M120.3 60.7154C124.253 62.5245 128.166 63.7734 132.455 64.567C139.402 65.8523 146.163 67.1783 152.894 69.3842C159.236 71.4626 165.526 73.7553 171.991 75.4352C173.727 75.8862 175.928 75.9083 175.864 78.171C175.779 81.1385 174.237 84.206 172.635 86.6145C170.757 89.4367 168.762 91.0108 165.36 91.3888C163.394 91.6073 161.412 91.6061 159.438 91.6999C156.066 91.8601 152.718 92.2443 149.353 92.4938C146.762 92.686 144.108 92.8369 141.521 92.4938C139.481 92.2232 137.574 91.4664 135.642 90.7987C132.249 89.6263 128.001 88.9124 125.042 86.7754C123.625 85.7523 122.865 83.8938 121.802 82.5376C120.633 81.0463 119.019 79.6769 118.798 77.6882C118.55 75.457 118.755 73.0972 118.755 70.854C118.755 68.8097 118.689 66.7629 119.356 64.846C119.651 63.9957 120.148 63.4433 120.257 62.4964C120.438 60.9241 120.678 60.8773 122.231 60.3292" stroke="black" stroke-width="3" stroke-linecap="round"/>
<path d="M241.577 44.3005C236.249 44.7445 229.627 45.3832 225.978 49.7292C223.624 52.5316 221.395 57.0957 222.373 60.8442C223.095 63.612 226.081 64.6457 228.424 65.6721C236.436 69.1824 245.102 71.625 253.486 74.0405C258.011 75.3439 262.334 76.575 267.047 76.2291C269.541 76.0461 271.864 75.2229 274.364 75.1992C276.819 75.1759 279.155 75.2441 281.402 74.1907C282.142 73.8437 282.596 73.1006 283.441 72.9247C284.091 72.7892 285.429 73.2116 285.758 72.4097C286.107 71.5602 285.303 70.4663 284.878 69.8348C283.428 67.6792 281.636 65.7336 279.836 63.8696C277.316 61.2603 274.767 59.6272 271.467 58.2049C268.544 56.9449 266.007 55.1737 263.249 53.613C259.776 51.6477 256.041 50.3799 252.456 48.7422C251.492 48.3018 245.553 44.4241 245.246 45.6523" stroke="black" stroke-width="3" stroke-linecap="round"/>
<path d="M344.702 105.325C343.278 107.39 343.173 110.583 343.242 112.986C343.444 119.935 348.148 124.706 353.757 128.199C361.794 133.205 371.428 137.712 380.986 138.477C383.708 138.695 386.532 138.536 389.14 137.683C391.518 136.906 393.749 135.838 396.167 135.14C399.938 134.054 405.168 133.268 408.012 130.291C409.053 129.201 409.873 127.907 410.866 126.772C411.904 125.585 413.614 124.258 413.902 122.599C414.141 121.218 412.485 120.547 411.52 120.067C408.883 118.753 406.108 117.694 403.388 116.569C398.862 114.698 394.29 112.942 389.709 111.215C386.876 110.148 384.227 108.759 381.276 108.029C378.844 107.428 376.239 107.036 373.884 106.184C372.276 105.602 370.703 104.928 369.002 104.66C366.041 104.195 363.035 104.133 360.044 104.167C358.131 104.188 356.276 104.668 354.357 104.51C352.836 104.384 351.385 104.167 349.851 104.167C348.037 104.167 344.324 103.579 342.964 104.939" stroke="black" stroke-width="3" stroke-linecap="round"/>
<path d="M227.673 110.153C229.295 112.053 231.239 113.644 232.823 115.582C235.554 118.924 238.199 121.867 241.835 124.294C246.694 127.537 252.04 130.31 257.563 132.233C261.964 133.765 267.27 135.268 271.982 134.647C274.277 134.344 274.655 131.497 274.225 129.572C273.48 126.239 271.031 123.181 269.118 120.442C266.888 117.251 264.769 114.404 261.168 112.707C257.65 111.048 253.943 109.423 250.31 108.029C245.817 106.304 241.66 105.754 236.824 106.302C233.926 106.63 231.363 106.785 228.456 106.688C227.363 106.651 225.513 106.168 224.969 107.257" stroke="black" stroke-width="3" stroke-linecap="round"/>
<path d="M26.2519 95.0902C29.53 96.8658 32.5359 99.2392 35.6825 101.238C37.6729 102.502 39.7842 103.606 41.7013 104.982C43.6239 106.362 45.3642 107.96 47.3768 109.22C48.8577 110.147 51.9581 112.24 53.8676 111.14C56.2286 109.78 57.3381 106.999 59.5968 105.561C61.7302 104.204 63.4394 103.174 64.3603 100.669C65.5879 97.3301 65.3837 93.8913 63.8561 90.7129C62.0489 86.9528 59.7774 83.7569 56.6142 81.0356C54.4283 79.155 51.9637 77.3511 49.5762 75.7356C44.8488 72.5368 39.0563 73.2279 33.8371 75.0919C32.6578 75.513 31.5398 76.2573 30.5005 76.9372C28.1303 78.4878 25.1997 80.5163 23.9345 83.1169C23.1248 84.7814 23.1621 86.5082 23.1621 88.3311C23.1621 89.2382 22.7353 91.2683 23.2694 92.1076C24.0084 93.2689 24.7132 93.2774 25.8657 93.7384" stroke="black" stroke-width="3" stroke-linecap="round"/>
</svg>
